<mxfile host="app.diagrams.net" modified="2024-05-16T21:21:41.303Z" agent="Mozilla/5.0 (Macintosh; Intel Mac OS X 10_15_7) AppleWebKit/537.36 (KHTML, like Gecko) Chrome/124.0.0.0 Safari/537.36" etag="jGr6euCb5K-R_6xr0KMq" version="24.4.2" type="device">
  <diagram name="Page-1" id="xUA3Y_YOHLh1f9uY_yVV">
    <mxGraphModel dx="1076" dy="633" grid="1" gridSize="10" guides="1" tooltips="1" connect="1" arrows="1" fold="1" page="1" pageScale="1" pageWidth="850" pageHeight="1100" math="0" shadow="0">
      <root>
        <mxCell id="0" />
        <mxCell id="1" parent="0" />
        <mxCell id="FgL405yx1syYTSOvZcrQ-12" style="edgeStyle=orthogonalEdgeStyle;rounded=0;orthogonalLoop=1;jettySize=auto;html=1;" edge="1" parent="1" source="FgL405yx1syYTSOvZcrQ-1" target="FgL405yx1syYTSOvZcrQ-10">
          <mxGeometry relative="1" as="geometry" />
        </mxCell>
        <mxCell id="FgL405yx1syYTSOvZcrQ-1" value="Forecast" style="rounded=0;whiteSpace=wrap;html=1;" vertex="1" parent="1">
          <mxGeometry x="75" y="140" width="100" height="50" as="geometry" />
        </mxCell>
        <mxCell id="FgL405yx1syYTSOvZcrQ-8" style="edgeStyle=orthogonalEdgeStyle;rounded=0;orthogonalLoop=1;jettySize=auto;html=1;" edge="1" parent="1" source="FgL405yx1syYTSOvZcrQ-5" target="FgL405yx1syYTSOvZcrQ-6">
          <mxGeometry relative="1" as="geometry" />
        </mxCell>
        <mxCell id="FgL405yx1syYTSOvZcrQ-5" value="Recommended Like Week" style="rounded=0;whiteSpace=wrap;html=1;" vertex="1" parent="1">
          <mxGeometry x="115" y="430" width="100" height="50" as="geometry" />
        </mxCell>
        <mxCell id="FgL405yx1syYTSOvZcrQ-6" value="Like Week" style="rounded=0;whiteSpace=wrap;html=1;" vertex="1" parent="1">
          <mxGeometry x="360" y="430" width="100" height="50" as="geometry" />
        </mxCell>
        <mxCell id="FgL405yx1syYTSOvZcrQ-7" value="&amp;lt;&amp;lt; Edit &amp;gt;&amp;gt;" style="rounded=1;whiteSpace=wrap;html=1;" vertex="1" parent="1">
          <mxGeometry x="75" y="340" width="90" height="40" as="geometry" />
        </mxCell>
        <mxCell id="FgL405yx1syYTSOvZcrQ-9" value="Updates on&lt;br&gt;Selected Week" style="text;html=1;align=center;verticalAlign=middle;whiteSpace=wrap;rounded=0;" vertex="1" parent="1">
          <mxGeometry x="165" y="400" width="150" height="20" as="geometry" />
        </mxCell>
        <mxCell id="FgL405yx1syYTSOvZcrQ-13" style="edgeStyle=orthogonalEdgeStyle;rounded=0;orthogonalLoop=1;jettySize=auto;html=1;" edge="1" parent="1" source="FgL405yx1syYTSOvZcrQ-10" target="FgL405yx1syYTSOvZcrQ-11">
          <mxGeometry relative="1" as="geometry" />
        </mxCell>
        <mxCell id="FgL405yx1syYTSOvZcrQ-16" value="(Right Method)" style="edgeLabel;html=1;align=center;verticalAlign=middle;resizable=0;points=[];" vertex="1" connectable="0" parent="FgL405yx1syYTSOvZcrQ-13">
          <mxGeometry x="-0.0952" relative="1" as="geometry">
            <mxPoint as="offset" />
          </mxGeometry>
        </mxCell>
        <mxCell id="FgL405yx1syYTSOvZcrQ-15" style="edgeStyle=orthogonalEdgeStyle;rounded=0;orthogonalLoop=1;jettySize=auto;html=1;entryX=0;entryY=0.5;entryDx=0;entryDy=0;" edge="1" parent="1" source="FgL405yx1syYTSOvZcrQ-10" target="FgL405yx1syYTSOvZcrQ-14">
          <mxGeometry relative="1" as="geometry">
            <Array as="points">
              <mxPoint x="280" y="245" />
            </Array>
          </mxGeometry>
        </mxCell>
        <mxCell id="FgL405yx1syYTSOvZcrQ-10" value="Created" style="rounded=0;whiteSpace=wrap;html=1;" vertex="1" parent="1">
          <mxGeometry x="230" y="140" width="100" height="50" as="geometry" />
        </mxCell>
        <mxCell id="FgL405yx1syYTSOvZcrQ-11" value="Recommended Like Week" style="rounded=0;whiteSpace=wrap;html=1;" vertex="1" parent="1">
          <mxGeometry x="540" y="140" width="100" height="50" as="geometry" />
        </mxCell>
        <mxCell id="FgL405yx1syYTSOvZcrQ-14" value="Like Week" style="rounded=0;whiteSpace=wrap;html=1;" vertex="1" parent="1">
          <mxGeometry x="540" y="230" width="100" height="50" as="geometry" />
        </mxCell>
      </root>
    </mxGraphModel>
  </diagram>
</mxfile>
